<svg xmlns="http://www.w3.org/2000/svg" width="82.279" height="68.416" viewBox="0 0 82.279 68.416"><path d="M3.659,59.864h43.53a3.442,3.442,0,0,0,3.63-3.207V16.035a.9.9,0,0,0-.031-.139.82.82,0,0,0-.031-.133,1.013,1.013,0,0,0-.3-.485L33.524.314a1.283,1.283,0,0,0-.549-.261,1.151,1.151,0,0,0-.15-.028A1.223,1.223,0,0,0,32.67,0H3.644A3.452,3.452,0,0,0,0,3.207v53.45a3.459,3.459,0,0,0,3.659,3.207ZM33.88,3.65,46.689,14.966H35.09A1.148,1.148,0,0,1,33.88,13.9V3.65ZM2.42,3.207A1.156,1.156,0,0,1,3.644,2.138H31.46V13.9A3.442,3.442,0,0,0,35.09,17.1H48.4V56.657a1.148,1.148,0,0,1-1.21,1.069H3.659A1.163,1.163,0,0,1,2.42,56.657V3.207Zm8.47,22.449H39.93a1.077,1.077,0,1,0,0-2.138H10.89a1.077,1.077,0,1,0,0,2.138Zm0,8.552H39.93a1.077,1.077,0,1,0,0-2.138H10.89a1.077,1.077,0,1,0,0,2.138Zm0-17.1h12.1a1.077,1.077,0,1,0,0-2.138H10.89a1.077,1.077,0,1,0,0,2.138Zm0,25.656H39.93a1.077,1.077,0,1,0,0-2.138H10.89a1.077,1.077,0,1,0,0,2.138Zm0,8.552H39.93a1.077,1.077,0,1,0,0-2.138H10.89a1.077,1.077,0,1,0,0,2.138ZM52.029,10.69h10.89V22.449a3.442,3.442,0,0,0,3.63,3.207h13.31V65.209a1.148,1.148,0,0,1-1.21,1.069H35.119a1.163,1.163,0,0,1-1.239-1.069V63.071a1.219,1.219,0,0,0-2.42,0v2.138a3.459,3.459,0,0,0,3.659,3.207h43.53a3.442,3.442,0,0,0,3.63-3.207V24.587a.9.9,0,0,0-.031-.139.821.821,0,0,0-.031-.133,1.013,1.013,0,0,0-.3-.485L64.983,8.866a1.245,1.245,0,0,0-.552-.261,1.113,1.113,0,0,0-.148-.026,1.226,1.226,0,0,0-.155-.028h-12.1a1.146,1.146,0,0,0-1.21,1.069,1.146,1.146,0,0,0,1.21,1.069Zm14.52,12.828a1.148,1.148,0,0,1-1.21-1.069V12.2L78.148,23.518Zm-9.68,10.69h14.52a1.077,1.077,0,1,0,0-2.138H56.869a1.077,1.077,0,1,0,0,2.138Zm0,8.552h14.52a1.077,1.077,0,1,0,0-2.138H56.869a1.077,1.077,0,1,0,0,2.138Zm0,8.552h14.52a1.077,1.077,0,1,0,0-2.138H56.869a1.077,1.077,0,1,0,0,2.138Zm0,8.552h14.52a1.077,1.077,0,1,0,0-2.138H56.869a1.077,1.077,0,1,0,0,2.138Z" fill="#fff"/></svg>