<svg xmlns="http://www.w3.org/2000/svg" width="62.774" height="46.58" viewBox="0 0 62.774 46.58"><path d="M57.8,11.348c-.349-1.281-2.057-2.325-3.8-2.325H32.6a9.244,9.244,0,0,1-5.409-2.058L25.315,5.252A9.228,9.228,0,0,0,19.908,3.2H9.683A3.535,3.535,0,0,0,6.165,6.093l-.917,8.752H58.433l-.632-3.5Zm3.163,6.408H1.834A1.741,1.741,0,0,0,.022,19.6l2.9,28.148A2.354,2.354,0,0,0,5.329,49.78H57.473a2.357,2.357,0,0,0,2.407-2.027l2.9-28.148a1.741,1.741,0,0,0-1.812-1.849Z" transform="translate(-0.014 -3.2)" fill="#fff"/></svg>