<svg xmlns="http://www.w3.org/2000/svg" xmlns:xlink="http://www.w3.org/1999/xlink" width="192.46" height="143.32" viewBox="0 0 192.46 143.32"><defs><linearGradient id="a" x1="1.731" y1="-0.048" x2="0.571" y2="0.473" gradientUnits="objectBoundingBox"><stop offset="0"/><stop offset="1" stop-opacity="0"/></linearGradient><linearGradient id="b" x1="-2.985" y1="0.854" x2="1.342" y2="0.469" xlink:href="#a"/></defs><g transform="translate(-56.26 -53.61)"><path d="M97.79,176a6.85,6.85,0,0,0,.55,2.92,4.89,4.89,0,0,0,2.12,2,8.43,8.43,0,0,0,6.21.61,1.25,1.25,0,0,0,.72-.43,1.1,1.1,0,0,0,.12-.62,4.59,4.59,0,0,0-1.62-2.92,10.071,10.071,0,0,1-2.24-2.56c-1-1.92-.24-7-3.86-6.22C96.77,169.41,97.71,173.83,97.79,176Z" transform="translate(-6.08 -4.69)" fill="#ffbaa8"/><path d="M97.29,179.43s-.51,1.26.12,2,7.13,4.78,11.51,1.53-5.94-3.68-5.94-3.68Z" transform="translate(-6.08 -4.69)" fill="#2a4365"/><path d="M97.55,176.48a.93.93,0,0,1,1.17.31A3.81,3.81,0,0,0,102.2,178c1.42-.34,2-2,2.7-2s4.5,3.22,4.71,4.6-1.72,2.4-3.86,2.53-7-1.34-7.89-2.47A4.53,4.53,0,0,1,97.55,176.48Z" transform="translate(-6.08 -4.69)" fill="#fff"/><path d="M85.38,177.94a6.85,6.85,0,0,0,.55,2.92,4.86,4.86,0,0,0,2.13,2,8.4,8.4,0,0,0,6.2.61A1.25,1.25,0,0,0,95,183a1.1,1.1,0,0,0,.12-.62,4.59,4.59,0,0,0-1.62-2.92,10.071,10.071,0,0,1-2.24-2.56c-.95-1.92-.24-7-3.86-6.21C84.36,171.39,85.3,175.81,85.38,177.94Z" transform="translate(-6.08 -4.69)" fill="#ffbaa8"/><path d="M84.88,181.41s-.51,1.26.12,2,7.13,4.78,11.51,1.53-5.94-3.68-5.94-3.68Z" transform="translate(-6.08 -4.69)" fill="#2a4365"/><path d="M85.14,178.47a.92.92,0,0,1,1.17.3A3.82,3.82,0,0,0,89.79,180c1.42-.34,2-2,2.71-2s4.49,3.22,4.7,4.6-1.72,2.4-3.86,2.53-7-1.34-7.89-2.47a4.51,4.51,0,0,1-.31-4.19Z" transform="translate(-6.08 -4.69)" fill="#fff"/><path d="M82.8,124.52s-.68,37.17,2.07,49.57l7,.86,4.84-50.89Z" transform="translate(-6.08 -4.69)" fill="#473f47"/><path d="M104.38,120.46s3.29,20-.7,52.25l-7,.87-4.84-50.9Z" transform="translate(-6.08 -4.69)" fill="#473f47"/><path d="M103.74,104.78c0,.67.09,1.35.09,2,0,3.71-.86,7.53.25,11.17a4.06,4.06,0,0,1,.3,2.48,3,3,0,0,1-1.55,1.49c-3.27,1.79-7,2.34-10.74,2.86-2.77.39-6.71,1.21-9.27-.28a4.65,4.65,0,0,1-1.82-3,57,57,0,0,1-1.73-11.7c0-.52-.07-1-.1-1.54-.21-3.56-.29-7.11-.22-10.66,0-2.58.26-5.37,1.94-7.32,2.24-2.59,6.57-4.31,9.86-4.91A11.09,11.09,0,0,1,94,85.21a13.77,13.77,0,0,1,4.38,1.49c1.64.81,3.09,1.49,3.89,3.1a22.13,22.13,0,0,1,1.83,5.89,21.43,21.43,0,0,1,.1,5.77c-.1.94-.34,1.87-.43,2.81C103.75,104.44,103.75,104.61,103.74,104.78Z" transform="translate(-6.08 -4.69)" fill="#fff"/><path d="M100.64,88l9.79,5.22,20.72-7.36,3.6,8.86s-19,9.72-22.67,9.76-13.32-2.63-13.32-2.63Z" transform="translate(-6.08 -4.69)" fill="#fff"/><path d="M109.23,98.82c-1.11-.13-6.66-2.89-7.27-3.35.85,1.79,2,7.35,2.19,7.46a18.07,18.07,0,0,0,6.7,1.85,13.48,13.48,0,0,0,6.8-1.28,33.529,33.529,0,0,1,3.21-1.65c.66-.25,1.35-.39,2-.61a19.35,19.35,0,0,0,4.83-2.67,1.93,1.93,0,0,0,1-1.19c.1-.66-.49-1.22-1.09-1.51a7.48,7.48,0,0,0-3-.63,13.6,13.6,0,0,0-4.08.09c-.85.24-1.48,1-2.31,1.41C115.81,97.79,111.83,99.12,109.23,98.82Z" transform="translate(-6.08 -4.69)" fill="#020202" opacity="0.1"/><path d="M88.61,125.79c-1.08.31-3.56-.67-4.38-.82a12.664,12.664,0,0,1-1.43-.45c-2.46-.61-2.75-7.51-3-9.37-.64-4.91-1.62-10-1.68-14.92a16.58,16.58,0,0,1,.65-5.62,6.52,6.52,0,0,1,3.69-4.1,1.86,1.86,0,0,1,1.09-.11c1.49.38,1.8,2.85,2.06,4,.45,2.1,1.47,3.06,2.51,4.74s1.11,3.78,2.1,5.51a4,4,0,0,0,1,1.26,4.54,4.54,0,0,0,2.8.59h7.06a2.23,2.23,0,0,1,1.61.4,2.31,2.31,0,0,1,.42,1.9l-.43,5.22a1.19,1.19,0,0,1-.17.65,1.25,1.25,0,0,1-.76.37,18.91,18.91,0,0,0-5.57,1.71,32.22,32.22,0,0,1-5.42,3,5.2,5.2,0,0,0-1.48,1,3.26,3.26,0,0,0-.71,2.23c0,.51.65,2.08.46,2.45a.71.71,0,0,1-.42.36Z" transform="translate(-6.08 -4.69)" fill="#020202" opacity="0.1"/><path d="M96.16,82.31a2.34,2.34,0,0,1-1.51.76,7.93,7.93,0,0,1-1.46,0h-.27a.33.33,0,0,0-.2,0,.29.29,0,0,0-.09.22,16.739,16.739,0,0,0,0,2.92h0v.53a1,1,0,0,1,0,.55.93.93,0,0,1-.59.38,4.31,4.31,0,0,1-1.32.23A5.82,5.82,0,0,1,88,87a26.64,26.64,0,0,0-.26-5c-.31-2.13-.87-4.26-.64-6.4a4.12,4.12,0,0,1,.9-2.29,4.19,4.19,0,0,1,3.17-1.14,8.12,8.12,0,0,1,4.35,1.19c.48.33.53.75.64,1.29.17.84.3,1.69.4,2.54s.16,1.94.18,2.92a3.28,3.28,0,0,1-.58,2.2Z" transform="translate(-6.08 -4.69)" fill="#ffbaa8"/><path d="M94.46,73.84c-1,.27-2.29,0-3.3.44a3.23,3.23,0,0,0-1.58,3.93c-.41.15-.49-.6-.81-.9s-1,.1-1.09.62a3.23,3.23,0,0,0,.45,1.48,4.41,4.41,0,0,1,.2,2.91c-.07.23-.24.5-.46.44s-.39-.45-.53-.62a6.38,6.38,0,0,0-.73-.74c-.5-.44-1.06-.83-1.58-1.26s-.71-.84-1.31-1A11.409,11.409,0,0,0,82,78.93a2.49,2.49,0,0,1-1.2-4.29,1.73,1.73,0,0,0,.49-.52,1.58,1.58,0,0,0,.06-.72,3.82,3.82,0,0,1,1.78-3.15,6.5,6.5,0,0,1,3.58-1,2.18,2.18,0,0,0,.81-.1,2.49,2.49,0,0,0,.65-.48A4.73,4.73,0,0,1,95.37,70a3.46,3.46,0,0,1,.45,2.28,1.78,1.78,0,0,1-1.36,1.56Z" transform="translate(-6.08 -4.69)" fill="#ff681c"/><path d="M93.19,83.1h-.27a.33.33,0,0,0-.2,0,.29.29,0,0,0-.09.22,16.74,16.74,0,0,0,0,2.92h0a3.91,3.91,0,0,1-2.7-4.14,16.591,16.591,0,0,0,3.29,1Z" transform="translate(-6.08 -4.69)" fill="#e0a091"/><rect width="10.6" height="24.95" rx="5.3" transform="translate(70.707 87.716) rotate(-19.53)" fill="#fff"/><path d="M234,94.26c-4.29,80.42-58.11,101.44-58.11,101.44-59.75-35.6-59.45-105.12-59.45-105.12,38.08-10.28,59.86-31.31,60.54-32h0C191.18,79.27,234,94.26,234,94.26Z" transform="translate(-6.08 -4.69)" fill="#2a4365"/><path d="M234,93.94c-4.29,80.42-58.11,101.44-58.11,101.44-59.75-35.6-59.45-105.12-59.45-105.12C154.54,80,176.32,59,177,58.3h0C191.18,79,234,93.94,234,93.94Z" transform="translate(-6.08 -4.69)" fill="url(#a)"/><path d="M111,101a15.322,15.322,0,0,0,1.42-1.18,14.67,14.67,0,0,1,3.64-2.41,7.06,7.06,0,0,1,4.27-.54c.31.06.68.25.64.57s-.22.34-.41.44A13.55,13.55,0,0,1,117.91,99a1.475,1.475,0,0,0-1,.62,2,2,0,0,0,.91-.11,10,10,0,0,1,3.49-.25c.11,0,.24,0,.3.14a.3.3,0,0,1-.18.39c-1.12.89-2.8.83-3.87,1.79-.19.16-.33.5-.12.63a.42.42,0,0,0,.27,0,8.294,8.294,0,0,0,1.37-.27,6.68,6.68,0,0,1,2.23-.06.37.37,0,0,1,.26.12c.11.17-.12.36-.3.45l-3.87,1.69a9.452,9.452,0,0,0,1.6,0,2.2,2.2,0,0,1,1.5.48.11.11,0,0,1,.06.09c0,.07,0,.11-.11.14a5.16,5.16,0,0,1-2,.6,6.21,6.21,0,0,0-1.23.22,5.689,5.689,0,0,0-.71.32,7.69,7.69,0,0,1-2.38.8,3.81,3.81,0,0,1-2.44-.4,3.73,3.73,0,0,0-.63-.32c-.8-.22-1.69.61-2.43.22a1.73,1.73,0,0,1-.58-.67c-.4-.66-1.74-2.5-.66-3.11a16.149,16.149,0,0,1,1.86-.6A8.53,8.53,0,0,0,111,101Z" transform="translate(-6.08 -4.69)" fill="#ffbaa8"/><path d="M94.26,103.13l13.24-1.27,2.14,6.46S90.29,116.19,86.53,114s-.27-5.76-.27-5.76S86.7,103,94.26,103.13Z" transform="translate(-6.08 -4.69)" fill="#fff"/><path d="M227.05,98.16c-3.79,70.88-51.22,89.41-51.22,89.41-52.66-31.38-52.4-92.65-52.4-92.65,33.57-9.06,52.76-27.6,53.36-28.17h0C189.29,85,227.05,98.16,227.05,98.16Z" transform="translate(-6.08 -4.69)" fill="#2a4365"/><path d="M176.8,66.74l-1,120.83c-52.66-31.38-52.4-92.65-52.4-92.65,33.57-9.06,52.76-27.6,53.36-28.17Z" transform="translate(-6.08 -4.69)" fill="url(#b)"/><circle cx="9.29" cy="9.29" r="9.29" transform="translate(160.46 104.56)" fill="#473f47"/><path d="M164.16,137.02h10.01l-2.84-14.88h-3.65Z" fill="#473f47"/><path d="M119.88,110.45h11.95v-8.67h9.47" fill="none" stroke="#fff" stroke-miterlimit="10" stroke-width="0.96" opacity="0.18"/><path d="M122.22,119.74h15.56v18.92h9.74" fill="none" stroke="#fff" stroke-miterlimit="10" stroke-width="0.96" opacity="0.18"/><path d="M219.98,104.56h-19.7V93.39H182.69" fill="none" stroke="#fff" stroke-miterlimit="10" stroke-width="0.96" opacity="0.18"/><path d="M216.31,123.14H197.12v19.67H183.59" fill="none" stroke="#fff" stroke-miterlimit="10" stroke-width="0.96" opacity="0.18"/><path d="M141.3,157.76h16.1V150.2h9.74" fill="none" stroke="#fff" stroke-miterlimit="10" stroke-width="0.96" opacity="0.18"/><path d="M135.66,86.77a1.09,1.09,0,0,0,1.13-.23c.44-.51.09-1.28-.27-1.85.34-.26.83.07,1.09.42s.57.77,1,.72.67-.64.56-1.08a6.5,6.5,0,0,0-.65-1.22c.19-.26.61,0,.78.25s.4.63.71.56a.56.56,0,0,0,.31-.66,5.572,5.572,0,0,1-.17-.79c.53-.17,1.14.38,1.63.12a.76.76,0,0,0,.1-1.13,2,2,0,0,0-1.16-.55,5,5,0,0,0-3.2.38c-1.15.46-2.35.7-3.47,1.28a6.83,6.83,0,0,0-2.65,2,.45.45,0,0,0,.13.59.72.72,0,0,0,.46,0,3.41,3.41,0,0,1,2.32.39,10.93,10.93,0,0,0,1.18.72Z" transform="translate(-6.08 -4.69)" fill="#ffbaa8"/><ellipse cx="96.23" cy="15.86" rx="96.23" ry="15.86" transform="translate(56.26 165.21)" fill="#2a4365" opacity="0.35"/></g></svg>