<svg xmlns="http://www.w3.org/2000/svg" width="79.063" height="68" viewBox="0 0 79.063 68"><path d="M63.2,65.19c0-7.678-8.645-11.583-17.064-14.721-8.393-3.123-11.073-5.755-11.073-11.395,0-3.38,2.562-2.279,3.684-8.481.474-2.57,2.735-.041,3.17-5.909,0-2.337-1.238-2.918-1.238-2.918s.628-3.463.875-6.129c.252-2.792-1.574-8.75-9.1-10.579-1.312-1.166-2.2-3.014,1.846-4.866-8.855-.355-10.915,3.651-15.629,6.6a10.189,10.189,0,0,0-4.9,8.853c.257,2.666.882,6.129.882,6.129s-1.24.581-1.24,2.918c.435,5.873,2.7,3.339,3.175,5.909,1.122,6.2,3.689,5.1,3.689,8.481,0,5.64-.838,7.554-9.235,10.677C2.62,52.889,0,57.914.043,65.192.056,67.369,0,68.17,0,68.17H63.245s-.044-.8-.044-2.978Zm10.038-19.7c-4.487-1.562-6.344-3.424-6.344-7.063,0-2.192,1.653-1.476,2.379-5.48.3-1.653,1.766-.028,2.048-3.811,0-1.508-.8-1.884-.8-1.884s.408-2.243.566-3.961c.2-2.143-1.438-7.68-8.966-7.68s-9.163,5.537-8.968,7.68c.166,1.715.568,3.961.568,3.961s-.8.372-.8,1.884c.282,3.783,1.744,2.158,2.048,3.811.726,4.006,2.379,3.292,2.379,5.48,0,3.636-1.732,5.339-7.15,7.355-.272.1-.474.233-.724.348,6.483,2.433,16.706,6.635,19.125,15.2H79.062V53.406c0-3.418-1.08-6.268-5.818-7.919Z" transform="translate(0.001 -0.17)" fill="#fff"/></svg>